<?xml version="1.0" encoding="utf-8"?>
<!-- Generator: Adobe Illustrator 26.0.3, SVG Export Plug-In . SVG Version: 6.00 Build 0)  -->
<svg version="1.1" xmlns="http://www.w3.org/2000/svg" xmlns:xlink="http://www.w3.org/1999/xlink" x="0px" y="0px"
	 viewBox="0 0 1024 1024" style="enable-background:new 0 0 1024 1024;" xml:space="preserve">
<style type="text/css">
	.st0{fill:none;stroke:#000000;stroke-width:69.5061;stroke-miterlimit:10;}
	.st1{fill:none;stroke:#000000;stroke-width:69.5061;stroke-linecap:round;stroke-miterlimit:10;}
	.st2{fill:none;stroke:#CCF6FF;stroke-width:75;stroke-linecap:round;stroke-miterlimit:10;}
	.st3{fill:#CCF6FF;}
	.st4{fill:none;stroke:#CCF6FF;stroke-width:53;stroke-miterlimit:10;}
	.st5{fill:#FFFFFF;}
	.st6{fill:#CCF6FF;stroke:#CCF6FF;stroke-width:80.5027;stroke-linecap:round;stroke-linejoin:round;stroke-miterlimit:10;}
	.st7{fill:#ABF1ED;}
	.st8{fill:none;stroke:#ABF1ED;stroke-width:75;stroke-miterlimit:10;}
	.st9{fill:none;stroke:#ABF1ED;stroke-width:75;stroke-linecap:round;stroke-miterlimit:10;}
	.st10{display:none;fill:none;stroke:#FFFFFF;stroke-width:75;stroke-linecap:round;stroke-miterlimit:10;}
	.st11{fill:#ABF1ED;stroke:#ABF1ED;stroke-width:75;stroke-linecap:round;stroke-linejoin:round;stroke-miterlimit:10;}
	.st12{fill:none;stroke:#FFFFFF;stroke-width:75;stroke-linecap:round;stroke-linejoin:round;stroke-miterlimit:10;}
	.st13{fill:#ABF1ED;stroke:#ABF1ED;stroke-width:50;stroke-linecap:round;stroke-linejoin:round;stroke-miterlimit:10;}
	.st14{fill:none;stroke:#2A2931;stroke-width:75;stroke-linecap:round;stroke-linejoin:round;stroke-miterlimit:10;}
	.st15{fill:none;stroke:#ABF1ED;stroke-width:50;stroke-linecap:round;stroke-miterlimit:10;}
	.st16{fill:#599FDB;}
	.st17{clip-path:url(#SVGID_00000146492970238713199690000015338789274397106564_);}
	.st18{fill:none;stroke:#4579A5;stroke-width:25;stroke-miterlimit:10;}
	.st19{fill:#F1FDFB;stroke:#4579A5;stroke-width:25;stroke-miterlimit:10;}
	.st20{fill:#58EEE5;stroke:#2BBEBE;stroke-width:25;stroke-miterlimit:10;}
	.st21{fill:#58EEE5;stroke:#2BBEBE;stroke-width:25;stroke-linecap:round;stroke-miterlimit:10;}
</style>
<g id="Слой_1">
	<path class="st13" d="M184.71,231.55c75.87-92.96,203.36-114.7,303.11-62.34c29.66,15.57,36.8,54.9,13.98,79.43l-86.01,92.48
		c-21.5,23.12-24.46,59.66-3.6,83.36c23.99,27.25,65.55,27.29,89.66,1.38l92.82-99.8c19.05-20.48,51.09-21.64,71.57-2.59
		l25.04,23.29c20.48,19.05,21.64,51.09,2.59,71.57L603.4,515.6c-21.5,23.12-24.46,59.66-3.6,83.36
		c23.99,27.25,65.55,27.29,89.65,1.37l90.17-96.96c21.71-23.34,59.25-18.87,76.06,8.21c59.53,95.93,46.91,224.97-40.96,307.3
		c-94.67,88.71-244.18,83-339.18-5.35l-261.5-243.2C118.75,481.69,102.42,332.38,184.71,231.55z"/>
</g>
<g id="Слой_2">
</g>
</svg>
