<?xml version="1.0" encoding="utf-8"?>
<!-- Generator: Adobe Illustrator 26.0.3, SVG Export Plug-In . SVG Version: 6.00 Build 0)  -->
<svg version="1.1" xmlns="http://www.w3.org/2000/svg" xmlns:xlink="http://www.w3.org/1999/xlink" x="0px" y="0px"
	 viewBox="0 0 1024 1024" style="enable-background:new 0 0 1024 1024;" xml:space="preserve">
<style type="text/css">
	.st0{fill:none;stroke:#000000;stroke-width:69.5061;stroke-miterlimit:10;}
	.st1{fill:none;stroke:#000000;stroke-width:69.5061;stroke-linecap:round;stroke-miterlimit:10;}
	.st2{fill:none;stroke:#CCF6FF;stroke-width:75;stroke-linecap:round;stroke-miterlimit:10;}
	.st3{fill:#CCF6FF;}
	.st4{fill:none;stroke:#CCF6FF;stroke-width:53;stroke-miterlimit:10;}
	.st5{fill:#FFFFFF;}
	.st6{fill:#CCF6FF;stroke:#CCF6FF;stroke-width:80.5027;stroke-linecap:round;stroke-linejoin:round;stroke-miterlimit:10;}
	.st7{fill:#ABF1ED;}
	.st8{fill:none;stroke:#ABF1ED;stroke-width:75;stroke-miterlimit:10;}
	.st9{fill:none;stroke:#ABF1ED;stroke-width:75;stroke-linecap:round;stroke-miterlimit:10;}
	.st10{display:none;fill:none;stroke:#FFFFFF;stroke-width:75;stroke-linecap:round;stroke-miterlimit:10;}
	.st11{fill:#ABF1ED;stroke:#ABF1ED;stroke-width:50;stroke-linecap:round;stroke-linejoin:round;stroke-miterlimit:10;}
	.st12{fill:none;stroke:#2A2931;stroke-width:75;stroke-linecap:round;stroke-linejoin:round;stroke-miterlimit:10;}
	.st13{fill:none;stroke:#ABF1ED;stroke-width:50;stroke-linecap:round;stroke-miterlimit:10;}
	.st14{fill:#599FDB;}
	.st15{clip-path:url(#SVGID_00000001664748869188333240000010636880838884964518_);}
	.st16{fill:none;stroke:#4579A5;stroke-width:25;stroke-miterlimit:10;}
	.st17{fill:#F1FDFB;stroke:#4579A5;stroke-width:25;stroke-miterlimit:10;}
	.st18{fill:#58EEE5;stroke:#2BBEBE;stroke-width:25;stroke-miterlimit:10;}
	.st19{fill:#58EEE5;stroke:#2BBEBE;stroke-width:25;stroke-linecap:round;stroke-miterlimit:10;}
</style>
<g id="Слой_1">
	<path class="st7" d="M773.06,518.94h0.33L550.5,123.81c-10.82-19.18-38.19-19.88-49.97-1.27l-244.41,385.9
		c-0.68,1.24-1.28,2.52-1.94,3.76l-3.47,6.73h0.22c-20.04,40.3-31.33,85.72-30.59,133.96c2.44,160.28,135.14,289.27,295.43,287.24
		c159.35-2.02,287.91-131.83,287.91-291.66C803.69,601.88,792.48,558.01,773.06,518.94z M592.05,837.36
		c-25.1,10.67-51.75,16.08-79.2,16.08c-111.7,0-202.57-90.87-202.57-202.57c0-32.8,8.03-65.4,23.24-94.27
		c10.2-19.38,34.19-26.82,53.57-16.62c19.38,10.21,26.82,34.19,16.61,53.57c-9.36,17.77-14.1,37.05-14.1,57.32
		c0,67.96,55.29,123.25,123.25,123.25c16.73,0,32.94-3.28,48.17-9.76c20.16-8.57,43.45,0.83,52.02,20.98
		C621.61,805.5,612.21,828.79,592.05,837.36z"/>
</g>
<g id="Слой_2">
</g>
</svg>
