<?xml version="1.0" encoding="utf-8"?>
<!-- Generator: Adobe Illustrator 26.0.3, SVG Export Plug-In . SVG Version: 6.00 Build 0)  -->
<svg version="1.1" xmlns="http://www.w3.org/2000/svg" xmlns:xlink="http://www.w3.org/1999/xlink" x="0px" y="0px"
	 viewBox="0 0 1024 1024" style="enable-background:new 0 0 1024 1024;" xml:space="preserve">
<style type="text/css">
	.st0{fill:none;stroke:#000000;stroke-width:69.5061;stroke-miterlimit:10;}
	.st1{fill:none;stroke:#000000;stroke-width:69.5061;stroke-linecap:round;stroke-miterlimit:10;}
	.st2{fill:none;stroke:#CCF6FF;stroke-width:75;stroke-linecap:round;stroke-miterlimit:10;}
	.st3{fill:#CCF6FF;}
	.st4{fill:none;stroke:#CCF6FF;stroke-width:53;stroke-miterlimit:10;}
	.st5{fill:#FFFFFF;}
	.st6{fill:#CCF6FF;stroke:#CCF6FF;stroke-width:80.5027;stroke-linecap:round;stroke-linejoin:round;stroke-miterlimit:10;}
	.st7{fill:#ABF1ED;}
	.st8{fill:none;stroke:#ABF1ED;stroke-width:75;stroke-miterlimit:10;}
	.st9{fill:none;stroke:#ABF1ED;stroke-width:75;stroke-linecap:round;stroke-miterlimit:10;}
	.st10{display:none;fill:none;stroke:#FFFFFF;stroke-width:75;stroke-linecap:round;stroke-miterlimit:10;}
	.st11{fill:#ABF1ED;stroke:#ABF1ED;stroke-width:75;stroke-linecap:round;stroke-linejoin:round;stroke-miterlimit:10;}
	.st12{fill:none;stroke:#FFFFFF;stroke-width:75;stroke-linecap:round;stroke-linejoin:round;stroke-miterlimit:10;}
	.st13{fill:#ABF1ED;stroke:#ABF1ED;stroke-width:50;stroke-linecap:round;stroke-linejoin:round;stroke-miterlimit:10;}
	.st14{fill:none;stroke:#2A2931;stroke-width:75;stroke-linecap:round;stroke-linejoin:round;stroke-miterlimit:10;}
	.st15{fill:none;stroke:#ABF1ED;stroke-width:50;stroke-linecap:round;stroke-miterlimit:10;}
	.st16{fill:#599FDB;}
	.st17{clip-path:url(#SVGID_00000034061036601287447010000000003534261351004063_);}
	.st18{fill:none;stroke:#4579A5;stroke-width:25;stroke-miterlimit:10;}
	.st19{fill:#F1FDFB;stroke:#4579A5;stroke-width:25;stroke-miterlimit:10;}
	.st20{fill:#58EEE5;stroke:#2BBEBE;stroke-width:25;stroke-miterlimit:10;}
	.st21{fill:#58EEE5;stroke:#2BBEBE;stroke-width:25;stroke-linecap:round;stroke-miterlimit:10;}
</style>
<g id="Слой_1">
	<g>
		<path class="st16" d="M568.82,223.51l-126.65,34.33c-0.62,0.17-1.16,0.47-1.6,0.87c-0.81-0.47-1.62-0.93-2.44-1.37V123.92
			c0-4.67-6.21-6.28-8.48-2.21L359.76,246.8c-51.73,12.59-90.93,62.45-93.79,123.05c-6.7,39.34-18.72,104.11-30.78,140.3
			C218.02,561.66,72.34,801.32,45.55,890.88c-2.65,8.85,6.44,16.64,14.79,12.68c92.3-43.81,130.02-58.17,223.61-80.5
			c81.5-19.45,141.03-52.51,160.1-63.96c2.2-1.28,4.38-2.63,6.52-4.05c46.47-30.75,78.26-93.08,78.26-164.97
			c0-23.85-3.5-46.64-9.87-67.58c0,0,0,0,0,0c-17.25-63.98-16.42-109.25-15.15-126.58c0.33-2.58,0.6-5.18,0.79-7.81l0,0
			c0.27-3.69,0.42-7.41,0.42-11.17c0-21.77-4.69-42.32-13.01-60.47l80.7-86.48C575.41,227.09,572.64,222.48,568.82,223.51z
			 M370.67,380.9c-22.85,0-41.38-18.53-41.38-41.38s18.53-41.38,41.38-41.38s41.38,18.53,41.38,41.38S393.53,380.9,370.67,380.9z"/>
		<circle class="st16" cx="636.12" cy="716.12" r="42.31"/>
		<circle class="st16" cx="786.36" cy="716.12" r="42.31"/>
		<circle class="st16" cx="936.61" cy="716.12" r="42.31"/>
	</g>
	<g>
		<defs>
			<rect id="SVGID_1_" y="1167" width="1024" height="1024"/>
		</defs>
		<clipPath id="SVGID_00000019656136177926686140000015824841951730135226_">
			<use xlink:href="#SVGID_1_"  style="overflow:visible;"/>
		</clipPath>
		<g style="clip-path:url(#SVGID_00000019656136177926686140000015824841951730135226_);">
			<path class="st18" d="M201,766.66c0,0-21,130,112,130s155,86,152,142c-3,56,52,118,130,112s142,74,131,130
				s17.72,173.67,171.36,160.33S1102,1545.66,1102,1622.66s78,170,187,130"/>
			<path class="st18" d="M231,632.66c0,0-21,130,112,130s155,86,152,142s52,118,130,112s142,74,131,130s17.72,173.67,171.36,160.33
				S1132,1411.66,1132,1488.66s78,170,187,130"/>
			<path class="st18" d="M680,849.66c0,0-21,130,112,130s155,86,152,142s52,118,130,112s142,74,131,130s17.72,173.67,171.36,160.33
				S1581,1628.66,1581,1705.66s78,170,187,130"/>
		</g>
	</g>
</g>
<g id="Слой_2">
</g>
</svg>
