<?xml version="1.0" encoding="utf-8"?>
<!-- Generator: Adobe Illustrator 26.0.3, SVG Export Plug-In . SVG Version: 6.00 Build 0)  -->
<svg version="1.1" xmlns="http://www.w3.org/2000/svg" xmlns:xlink="http://www.w3.org/1999/xlink" x="0px" y="0px"
	 viewBox="0 0 1024 1024" style="enable-background:new 0 0 1024 1024;" xml:space="preserve">
<style type="text/css">
	.st0{fill:none;stroke:#000000;stroke-width:69.5061;stroke-miterlimit:10;}
	.st1{fill:none;stroke:#000000;stroke-width:69.5061;stroke-linecap:round;stroke-miterlimit:10;}
	.st2{fill:none;stroke:#CCF6FF;stroke-width:75;stroke-linecap:round;stroke-miterlimit:10;}
	.st3{fill:#CCF6FF;}
	.st4{fill:none;stroke:#CCF6FF;stroke-width:53;stroke-miterlimit:10;}
	.st5{fill:#FFFFFF;}
	.st6{fill:#CCF6FF;stroke:#CCF6FF;stroke-width:80.5027;stroke-linecap:round;stroke-linejoin:round;stroke-miterlimit:10;}
	.st7{fill:none;stroke:#ABF1ED;stroke-width:75;stroke-miterlimit:10;}
	.st8{fill:none;stroke:#ABF1ED;stroke-width:75;stroke-linecap:round;stroke-miterlimit:10;}
	.st9{fill:none;stroke:#ABF1ED;stroke-width:75;stroke-linecap:round;stroke-linejoin:round;stroke-miterlimit:10;}
	.st10{fill:none;stroke:#2A2931;stroke-width:75;stroke-linecap:round;stroke-linejoin:round;stroke-miterlimit:10;}
	.st11{fill:none;stroke:#ABF1ED;stroke-width:50;stroke-linecap:round;stroke-miterlimit:10;}
	.st12{fill:#ABF1ED;}
	.st13{fill:#599FDB;}
	.st14{clip-path:url(#SVGID_00000157994399620450562520000009765775726845910447_);}
	.st15{fill:none;stroke:#4579A5;stroke-width:25;stroke-miterlimit:10;}
	.st16{fill:#F1FDFB;stroke:#4579A5;stroke-width:25;stroke-miterlimit:10;}
	.st17{fill:#58EEE5;stroke:#2BBEBE;stroke-width:25;stroke-miterlimit:10;}
	.st18{fill:#58EEE5;stroke:#2BBEBE;stroke-width:25;stroke-linecap:round;stroke-miterlimit:10;}
</style>
<g id="Слой_1">
	<g>
		<path class="st2" d="M512,96.72c229.35,0,415.28,185.93,415.28,415.28S741.35,927.28,512,927.28S96.72,741.35,96.72,512
			c0-81.85,23.68-158.17,64.56-222.48"/>
		<path class="st2" d="M512,247.73c145.95,0,264.27,118.32,264.27,264.27c0,79.65-35.24,151.08-90.98,199.53"/>
		<path class="st2" d="M512,393.64c65.37,0,118.36,52.99,118.36,118.36S577.37,630.36,512,630.36S393.64,577.37,393.64,512
			c0-17.81,3.93-34.69,10.98-49.84"/>
	</g>
</g>
<g id="Слой_2">
</g>
</svg>
