<?xml version="1.0" encoding="utf-8"?>
<!-- Generator: Adobe Illustrator 26.0.3, SVG Export Plug-In . SVG Version: 6.00 Build 0)  -->
<svg version="1.1" xmlns="http://www.w3.org/2000/svg" xmlns:xlink="http://www.w3.org/1999/xlink" x="0px" y="0px"
	 viewBox="0 0 1024 1024" style="enable-background:new 0 0 1024 1024;" xml:space="preserve">
<style type="text/css">
	.st0{fill:none;stroke:#000000;stroke-width:69.5061;stroke-miterlimit:10;}
	.st1{fill:none;stroke:#000000;stroke-width:69.5061;stroke-linecap:round;stroke-miterlimit:10;}
	.st2{fill:none;stroke:#CCF6FF;stroke-width:75;stroke-linecap:round;stroke-miterlimit:10;}
	.st3{fill:#CCF6FF;}
	.st4{fill:none;stroke:#CCF6FF;stroke-width:53;stroke-miterlimit:10;}
	.st5{fill:#FFFFFF;}
	.st6{fill:#CCF6FF;stroke:#CCF6FF;stroke-width:80.5027;stroke-linecap:round;stroke-linejoin:round;stroke-miterlimit:10;}
	.st7{fill:none;stroke:#ABF1ED;stroke-width:75;stroke-miterlimit:10;}
	.st8{fill:none;stroke:#ABF1ED;stroke-width:75;stroke-linecap:round;stroke-miterlimit:10;}
	.st9{fill:none;stroke:#ABF1ED;stroke-width:75;stroke-linecap:round;stroke-linejoin:round;stroke-miterlimit:10;}
	.st10{fill:none;stroke:#2A2931;stroke-width:75;stroke-linecap:round;stroke-linejoin:round;stroke-miterlimit:10;}
	.st11{fill:none;stroke:#ABF1ED;stroke-width:50;stroke-linecap:round;stroke-miterlimit:10;}
	.st12{fill:#ABF1ED;}
	.st13{fill:#599FDB;}
	.st14{clip-path:url(#SVGID_00000112625891294726627070000014965303807962551424_);}
	.st15{fill:none;stroke:#4579A5;stroke-width:25;stroke-miterlimit:10;}
	.st16{fill:#F1FDFB;stroke:#4579A5;stroke-width:25;stroke-miterlimit:10;}
	.st17{fill:#58EEE5;stroke:#2BBEBE;stroke-width:25;stroke-miterlimit:10;}
	.st18{fill:#58EEE5;stroke:#2BBEBE;stroke-width:25;stroke-linecap:round;stroke-miterlimit:10;}
</style>
<g id="Слой_1">
	<g>
		<path class="st10" d="M564.29,191.67l40.81-34.54c34.75-29.41,88.22-7.27,91.99,38.11l4.43,53.28
			c3.28,39.4,34.55,70.67,73.95,73.95l53.28,4.43c45.37,3.78,67.52,57.24,38.11,91.99l-34.54,40.81
			c-25.54,30.18-25.54,74.4,0,104.58l34.54,40.81c29.41,34.75,7.27,88.22-38.11,91.99l-53.28,4.43
			c-39.4,3.28-70.67,34.55-73.95,73.95l-4.43,53.28c-3.78,45.37-57.24,67.52-91.99,38.11l-40.81-34.54
			c-30.18-25.54-74.4-25.54-104.58,0l-40.81,34.54c-34.75,29.41-88.22,7.27-91.99-38.11l-4.43-53.28
			c-3.28-39.4-34.55-70.67-73.95-73.95l-53.28-4.43c-45.37-3.78-67.52-57.24-38.11-91.99l34.54-40.81
			c25.54-30.18,25.54-74.4,0-104.58l-34.54-40.81c-29.41-34.75-7.27-88.22,38.11-91.99l53.28-4.43
			c39.4-3.28,70.67-34.55,73.95-73.95l4.43-53.28c3.78-45.37,57.24-67.52,91.99-38.11l40.81,34.54
			C489.89,217.22,534.11,217.22,564.29,191.67z"/>
		<circle class="st10" cx="512" cy="512" r="100.5"/>
	</g>
</g>
<g id="Слой_2">
</g>
</svg>
