<?xml version="1.0" encoding="utf-8"?>
<!-- Generator: Adobe Illustrator 26.0.3, SVG Export Plug-In . SVG Version: 6.00 Build 0)  -->
<svg version="1.1" xmlns="http://www.w3.org/2000/svg" xmlns:xlink="http://www.w3.org/1999/xlink" x="0px" y="0px"
	 viewBox="0 0 1024 1024" style="enable-background:new 0 0 1024 1024;" xml:space="preserve">
<style type="text/css">
	.st0{fill:none;stroke:#000000;stroke-width:69.5061;stroke-miterlimit:10;}
	.st1{fill:none;stroke:#000000;stroke-width:69.5061;stroke-linecap:round;stroke-miterlimit:10;}
	.st2{fill:none;stroke:#CCF6FF;stroke-width:75;stroke-linecap:round;stroke-miterlimit:10;}
	.st3{fill:#CCF6FF;}
	.st4{fill:none;stroke:#CCF6FF;stroke-width:53;stroke-miterlimit:10;}
	.st5{fill:#FFFFFF;}
	.st6{fill:#CCF6FF;stroke:#CCF6FF;stroke-width:80.5027;stroke-linecap:round;stroke-linejoin:round;stroke-miterlimit:10;}
	.st7{fill:none;stroke:#ABF1ED;stroke-width:75;stroke-miterlimit:10;}
	.st8{fill:none;stroke:#ABF1ED;stroke-width:75;stroke-linecap:round;stroke-miterlimit:10;}
	.st9{fill:none;stroke:#ABF1ED;stroke-width:75;stroke-linecap:round;stroke-linejoin:round;stroke-miterlimit:10;}
	.st10{fill:none;stroke:#2A2931;stroke-width:75;stroke-linecap:round;stroke-linejoin:round;stroke-miterlimit:10;}
	.st11{fill:none;stroke:#ABF1ED;stroke-width:50;stroke-linecap:round;stroke-miterlimit:10;}
	.st12{fill:#ABF1ED;}
	.st13{fill:#599FDB;}
	.st14{clip-path:url(#SVGID_00000124870337479121737800000003095769382431490452_);}
	.st15{fill:none;stroke:#4579A5;stroke-width:25;stroke-miterlimit:10;}
	.st16{fill:#F1FDFB;stroke:#4579A5;stroke-width:25;stroke-miterlimit:10;}
	.st17{fill:#58EEE5;stroke:#2BBEBE;stroke-width:25;stroke-miterlimit:10;}
	.st18{fill:#58EEE5;stroke:#2BBEBE;stroke-width:25;stroke-linecap:round;stroke-miterlimit:10;}
</style>
<g id="Слой_1">
	<g>
		<path class="st8" d="M764.65,826.88c-31.2,25.1-66.22,45.65-104.04,60.64"/>
		<path class="st8" d="M814.03,244.9c63.09,71.19,101.39,164.85,101.39,267.45c0,66.67-16.17,129.55-44.8,184.96"/>
		<path class="st8" d="M488.05,915.07c-211.65-12.39-379.47-187.96-379.47-402.72c0-222.8,180.62-403.42,403.42-403.42
			c52.48,0,102.62,10.02,148.61,28.25"/>
	</g>
	<g>
		<path class="st12" d="M650.9,557.96L511.95,696.91l-149.4-149.4C257.57,442.52,396.52,303.57,501.5,408.56L650.9,557.96z"/>
		<path class="st12" d="M512.05,696.78L373.1,557.84l149.4-149.4c104.99-104.99,243.93,33.96,138.95,138.95L512.05,696.78z"/>
	</g>
</g>
<g id="Слой_2">
</g>
</svg>
