<?xml version="1.0" encoding="utf-8"?>
<!-- Generator: Adobe Illustrator 26.0.3, SVG Export Plug-In . SVG Version: 6.00 Build 0)  -->
<svg version="1.1" xmlns="http://www.w3.org/2000/svg" xmlns:xlink="http://www.w3.org/1999/xlink" x="0px" y="0px"
	 viewBox="0 0 1024 1024" style="enable-background:new 0 0 1024 1024;" xml:space="preserve">
<style type="text/css">
	.st0{fill:none;stroke:#000000;stroke-width:69.5061;stroke-miterlimit:10;}
	.st1{fill:none;stroke:#000000;stroke-width:69.5061;stroke-linecap:round;stroke-miterlimit:10;}
	.st2{fill:none;stroke:#CCF6FF;stroke-width:75;stroke-linecap:round;stroke-miterlimit:10;}
	.st3{fill:#CCF6FF;}
	.st4{fill:none;stroke:#CCF6FF;stroke-width:53;stroke-miterlimit:10;}
	.st5{fill:#FFFFFF;}
	.st6{fill:#CCF6FF;stroke:#CCF6FF;stroke-width:80.5027;stroke-linecap:round;stroke-linejoin:round;stroke-miterlimit:10;}
	.st7{fill:none;stroke:#ABF1ED;stroke-width:75;stroke-miterlimit:10;}
	.st8{fill:none;stroke:#ABF1ED;stroke-width:75;stroke-linecap:round;stroke-miterlimit:10;}
	.st9{fill:none;stroke:#ABF1ED;stroke-width:75;stroke-linecap:round;stroke-linejoin:round;stroke-miterlimit:10;}
	.st10{fill:none;stroke:#2A2931;stroke-width:75;stroke-linecap:round;stroke-linejoin:round;stroke-miterlimit:10;}
	.st11{fill:none;stroke:#ABF1ED;stroke-width:50;stroke-linecap:round;stroke-miterlimit:10;}
	.st12{fill:#ABF1ED;}
	.st13{fill:#599FDB;}
	.st14{clip-path:url(#SVGID_00000120524583518854242350000017784880648937412482_);}
	.st15{fill:none;stroke:#4579A5;stroke-width:25;stroke-miterlimit:10;}
	.st16{fill:#F1FDFB;stroke:#4579A5;stroke-width:25;stroke-miterlimit:10;}
	.st17{fill:#58EEE5;stroke:#2BBEBE;stroke-width:25;stroke-miterlimit:10;}
	.st18{fill:#58EEE5;stroke:#2BBEBE;stroke-width:25;stroke-linecap:round;stroke-miterlimit:10;}
</style>
<g id="Слой_1">
	<g>
		<path class="st3" d="M829.8,106.88H287.18c-59.23,0-107.25,48.02-107.25,107.25v32.22h66.41c29.34,0,53.13,23.79,53.13,53.13
			c0,29.34-23.79,53.13-53.13,53.13h-66.41v106.26h66.41c29.34,0,53.13,23.79,53.13,53.13c0,29.34-23.79,53.13-53.13,53.13h-66.41
			v106.26h66.41c29.34,0,53.13,23.79,53.13,53.13c0,29.34-23.79,53.13-53.13,53.13h-66.41v32.22c0,59.23,48.02,107.25,107.25,107.25
			H829.8c59.23,0,107.25-48.02,107.25-107.25V214.12C937.05,154.89,889.03,106.88,829.8,106.88z"/>
		<path class="st4" d="M233.06,352.61h-92.98c-29.34,0-53.13-23.79-53.13-53.13v0c0-29.34,23.79-53.13,53.13-53.13h92.98
			c29.34,0,53.13,23.79,53.13,53.13v0C286.19,328.82,262.41,352.61,233.06,352.61z"/>
		<path class="st4" d="M233.06,777.66h-92.98c-29.34,0-53.13-23.79-53.13-53.13v0c0-29.34,23.79-53.13,53.13-53.13h92.98
			c29.34,0,53.13,23.79,53.13,53.13v0C286.19,753.87,262.41,777.66,233.06,777.66z"/>
		<path class="st4" d="M233.06,565.13h-92.98c-29.34,0-53.13-23.79-53.13-53.13v0c0-29.34,23.79-53.13,53.13-53.13h92.98
			c29.34,0,53.13,23.79,53.13,53.13v0C286.19,541.34,262.41,565.13,233.06,565.13z"/>
		<path class="st5" d="M724.52,352.61H405.74c-29.34,0-53.13-23.79-53.13-53.13v0c0-29.34,23.79-53.13,53.13-53.13h318.79
			c29.34,0,53.13,23.79,53.13,53.13v0C777.66,328.82,753.87,352.61,724.52,352.61z"/>
	</g>
</g>
<g id="Слой_2">
</g>
</svg>
